<?xml version="1.0" encoding="utf-8"?>
<!-- Generator: Adobe Illustrator 15.1.0, SVG Export Plug-In . SVG Version: 6.00 Build 0)  -->
<!DOCTYPE svg PUBLIC "-//W3C//DTD SVG 1.1//EN" "http://www.w3.org/Graphics/SVG/1.1/DTD/svg11.dtd">
<svg version="1.1" id="Layer_1" xmlns="http://www.w3.org/2000/svg" xmlns:xlink="http://www.w3.org/1999/xlink" x="0px" y="0px"
	 width="108px" height="36px" viewBox="0 0 108 36" enable-background="new 0 0 108 36" xml:space="preserve">
<g>
	<path fill="#61A7D9" d="M18.054,15.118c0,0.793-0.284,1.474-0.85,2.04c-0.567,0.566-1.247,0.85-2.04,0.85H8.976
		c-0.907,0-1.61,0.329-2.108,0.986c-0.386,0.59-0.771,1.189-1.156,1.802c-0.521,0.657-1.236,0.986-2.142,0.986
		c-0.793,0-1.474-0.283-2.04-0.851c-0.566-0.566-0.85-1.246-0.85-2.04c0-0.317,0.056-0.646,0.17-0.986
		c0.566-1.677,1.615-3.043,3.145-4.097c1.53-1.054,3.19-1.581,4.981-1.581h6.188c0.793,0,1.473,0.284,2.04,0.85
		C17.771,13.645,18.054,14.325,18.054,15.118z M18.02,22.836c0,0.34-0.057,0.669-0.17,0.986c-0.59,1.678-1.638,3.043-3.145,4.097
		c-1.508,1.054-3.157,1.581-4.947,1.581H3.57c-0.793,0-1.474-0.283-2.04-0.85s-0.85-1.246-0.85-2.041
		c0-0.793,0.283-1.473,0.85-2.039s1.247-0.85,2.04-0.85h6.188c1.247,0,2.13-0.63,2.652-1.888c0.521-1.258,1.428-1.888,2.72-1.888
		c0.793,0,1.473,0.284,2.04,0.851C17.736,21.363,18.02,22.043,18.02,22.836z"/>
	<path fill="#61A7D9" d="M36.822,26.609c0,0.795-0.284,1.475-0.85,2.041s-1.247,0.85-2.04,0.85c-0.794,0-1.474-0.283-2.04-0.85
		c-0.567-0.566-0.85-1.246-0.85-2.041V20.83c0-0.793-0.278-1.467-0.833-2.023c-0.556-0.555-1.219-0.833-1.989-0.833
		s-1.439,0.284-2.006,0.85c-0.567,0.566-0.85,1.235-0.85,2.006v5.779c0,0.795-0.284,1.475-0.85,2.041s-1.247,0.85-2.04,0.85
		c-0.794,0-1.479-0.283-2.057-0.85s-0.867-1.246-0.867-2.041V9.304c0-0.793,0.283-1.473,0.85-2.04c0.566-0.566,1.246-0.85,2.04-0.85
		c0.793,0,1.473,0.284,2.04,0.85c0.566,0.567,0.85,1.247,0.85,2.04v3.366c0.952-0.317,1.904-0.476,2.856-0.476
		c2.38,0,4.414,0.845,6.103,2.533c1.688,1.689,2.533,3.723,2.533,6.103V26.609z"/>
	<path fill="#61A7D9" d="M44.234,9.304c0,0.793-0.284,1.474-0.85,2.04c-0.567,0.566-1.247,0.85-2.04,0.85
		c-0.794,0-1.479-0.283-2.057-0.85s-0.867-1.247-0.867-2.04s0.283-1.473,0.85-2.04c0.566-0.566,1.247-0.85,2.04-0.85
		s1.479,0.284,2.057,0.85C43.945,7.831,44.234,8.511,44.234,9.304z M44.234,26.609c0,0.795-0.284,1.475-0.85,2.041
		c-0.567,0.566-1.247,0.85-2.04,0.85c-0.794,0-1.479-0.283-2.057-0.85s-0.867-1.246-0.867-2.041v-9.383
		c0-0.793,0.283-1.473,0.85-2.04c0.566-0.566,1.247-0.85,2.04-0.85s1.479,0.284,2.057,0.85c0.578,0.567,0.867,1.247,0.867,2.04
		V26.609z"/>
	<path fill="#61A7D9" d="M57.97,26.609c0,0.795-0.284,1.475-0.851,2.041s-1.246,0.85-2.039,0.85h-0.714
		c-2.38,0-4.42-0.844-6.12-2.533c-1.7-1.688-2.55-3.723-2.55-6.104V9.338c0-0.793,0.289-1.473,0.867-2.04
		c0.578-0.566,1.264-0.85,2.057-0.85c0.793,0,1.473,0.283,2.04,0.85c0.566,0.567,0.85,1.247,0.85,2.04v2.89h3.57
		c0.793,0,1.473,0.284,2.039,0.85c0.566,0.567,0.851,1.247,0.851,2.04s-0.284,1.474-0.851,2.04s-1.246,0.85-2.039,0.85h-3.604v2.855
		c0,0.771,0.283,1.44,0.85,2.007c0.566,0.567,1.235,0.851,2.006,0.851h0.749c0.793,0,1.473,0.283,2.039,0.85
		S57.97,25.816,57.97,26.609z"/>
	<path fill="#61A7D9" d="M71.604,26.609c0,0.795-0.285,1.475-0.852,2.041s-1.246,0.85-2.039,0.85h-0.715
		c-2.379,0-4.419-0.844-6.119-2.533c-1.7-1.688-2.55-3.723-2.55-6.104V9.338c0-0.793,0.289-1.473,0.866-2.04
		c0.578-0.566,1.264-0.85,2.058-0.85c0.793,0,1.474,0.283,2.04,0.85c0.566,0.567,0.85,1.247,0.85,2.04v2.89h3.57
		c0.793,0,1.473,0.284,2.039,0.85c0.566,0.567,0.852,1.247,0.852,2.04s-0.285,1.474-0.852,2.04s-1.246,0.85-2.039,0.85h-3.604v2.855
		c0,0.771,0.283,1.44,0.85,2.007c0.566,0.567,1.234,0.851,2.006,0.851h0.748c0.793,0,1.473,0.283,2.039,0.85
		S71.604,25.816,71.604,26.609z"/>
	<path fill="#61A7D9" d="M90.27,26.609c0,0.795-0.285,1.475-0.852,2.041s-1.246,0.85-2.039,0.85h-5.678
		c-2.381,0-4.42-0.844-6.121-2.533c-1.699-1.688-2.549-3.723-2.549-6.104c0-2.379,0.844-4.414,2.533-6.102
		c1.688-1.688,3.723-2.533,6.102-2.533c2.018,0,3.809,0.624,5.373,1.87s2.572,2.856,3.025,4.828
		c0.068,0.137,0.102,0.352,0.102,0.646c0,0.793-0.283,1.474-0.85,2.039c-0.566,0.567-1.246,0.851-2.039,0.851
		c-1.428,0-2.363-0.736-2.805-2.21c-0.443-1.473-1.367-2.21-2.771-2.21c-0.795,0-1.475,0.278-2.041,0.833
		c-0.566,0.556-0.85,1.219-0.85,1.988c0,0.771,0.283,1.44,0.85,2.007c0.566,0.567,1.236,0.851,2.006,0.851h5.678
		c0.795,0,1.48,0.283,2.059,0.85S90.27,25.816,90.27,26.609z"/>
	<path fill="#61A7D9" d="M107.234,15.118c0,0.793-0.283,1.474-0.85,2.04c-0.568,0.566-1.248,0.85-2.041,0.85h-4.25
		c-0.77,0-1.439,0.278-2.006,0.833c-0.566,0.556-0.85,1.229-0.85,2.022v5.746c0,0.795-0.283,1.475-0.85,2.041
		c-0.568,0.566-1.248,0.85-2.041,0.85s-1.479-0.283-2.057-0.85s-0.867-1.246-0.867-2.041v-5.746c0-2.379,0.844-4.414,2.533-6.102
		c1.688-1.688,3.723-2.533,6.104-2.533h4.25c0.793,0,1.479,0.284,2.057,0.85C106.945,13.645,107.234,14.325,107.234,15.118z"/>
</g>
</svg>
